<svg width="114" height="33" viewBox="0 0 114 33" fill="none" xmlns="http://www.w3.org/2000/svg">
<path d="M43.368 20.636V29H42.276V25.208H38.016V29H36.924V20.636H38.016V24.308H42.276V20.636H43.368ZM50.8246 22.424V29H49.7326V28.028C49.5246 28.364 49.2326 28.628 48.8566 28.82C48.4886 29.004 48.0806 29.096 47.6326 29.096C47.1206 29.096 46.6606 28.992 46.2526 28.784C45.8446 28.568 45.5206 28.248 45.2806 27.824C45.0486 27.4 44.9326 26.884 44.9326 26.276V22.424H46.0126V26.132C46.0126 26.78 46.1766 27.28 46.5046 27.632C46.8326 27.976 47.2806 28.148 47.8486 28.148C48.4326 28.148 48.8926 27.968 49.2286 27.608C49.5646 27.248 49.7326 26.724 49.7326 26.036V22.424H50.8246ZM60.3364 22.304C60.8484 22.304 61.3044 22.412 61.7044 22.628C62.1044 22.836 62.4204 23.152 62.6524 23.576C62.8844 24 63.0004 24.516 63.0004 25.124V29H61.9204V25.28C61.9204 24.624 61.7564 24.124 61.4284 23.78C61.1084 23.428 60.6724 23.252 60.1204 23.252C59.5524 23.252 59.1004 23.436 58.7644 23.804C58.4284 24.164 58.2604 24.688 58.2604 25.376V29H57.1804V25.28C57.1804 24.624 57.0164 24.124 56.6884 23.78C56.3684 23.428 55.9324 23.252 55.3804 23.252C54.8124 23.252 54.3604 23.436 54.0244 23.804C53.6884 24.164 53.5204 24.688 53.5204 25.376V29H52.4284V22.424H53.5204V23.372C53.7364 23.028 54.0244 22.764 54.3844 22.58C54.7524 22.396 55.1564 22.304 55.5964 22.304C56.1484 22.304 56.6364 22.428 57.0604 22.676C57.4844 22.924 57.8004 23.288 58.0084 23.768C58.1924 23.304 58.4964 22.944 58.9204 22.688C59.3444 22.432 59.8164 22.304 60.3364 22.304ZM65.1157 21.356C64.9077 21.356 64.7317 21.284 64.5877 21.14C64.4437 20.996 64.3717 20.82 64.3717 20.612C64.3717 20.404 64.4437 20.228 64.5877 20.084C64.7317 19.94 64.9077 19.868 65.1157 19.868C65.3157 19.868 65.4837 19.94 65.6197 20.084C65.7637 20.228 65.8357 20.404 65.8357 20.612C65.8357 20.82 65.7637 20.996 65.6197 21.14C65.4837 21.284 65.3157 21.356 65.1157 21.356ZM65.6437 22.424V29H64.5517V22.424H65.6437ZM66.8568 25.688C66.8568 25.016 66.9928 24.428 67.2648 23.924C67.5368 23.412 67.9088 23.016 68.3808 22.736C68.8608 22.456 69.3968 22.316 69.9888 22.316C70.5008 22.316 70.9768 22.436 71.4168 22.676C71.8568 22.908 72.1928 23.216 72.4248 23.6V20.12H73.5288V29H72.4248V27.764C72.2088 28.156 71.8888 28.48 71.4648 28.736C71.0408 28.984 70.5448 29.108 69.9768 29.108C69.3928 29.108 68.8608 28.964 68.3808 28.676C67.9088 28.388 67.5368 27.984 67.2648 27.464C66.9928 26.944 66.8568 26.352 66.8568 25.688ZM72.4248 25.7C72.4248 25.204 72.3248 24.772 72.1248 24.404C71.9248 24.036 71.6528 23.756 71.3088 23.564C70.9728 23.364 70.6008 23.264 70.1928 23.264C69.7848 23.264 69.4128 23.36 69.0768 23.552C68.7408 23.744 68.4728 24.024 68.2728 24.392C68.0728 24.76 67.9728 25.192 67.9728 25.688C67.9728 26.192 68.0728 26.632 68.2728 27.008C68.4728 27.376 68.7408 27.66 69.0768 27.86C69.4128 28.052 69.7848 28.148 70.1928 28.148C70.6008 28.148 70.9728 28.052 71.3088 27.86C71.6528 27.66 71.9248 27.376 72.1248 27.008C72.3248 26.632 72.4248 26.196 72.4248 25.7ZM75.6982 21.356C75.4902 21.356 75.3142 21.284 75.1702 21.14C75.0262 20.996 74.9542 20.82 74.9542 20.612C74.9542 20.404 75.0262 20.228 75.1702 20.084C75.3142 19.94 75.4902 19.868 75.6982 19.868C75.8982 19.868 76.0662 19.94 76.2022 20.084C76.3462 20.228 76.4182 20.404 76.4182 20.612C76.4182 20.82 76.3462 20.996 76.2022 21.14C76.0662 21.284 75.8982 21.356 75.6982 21.356ZM76.2262 22.424V29H75.1342V22.424H76.2262ZM79.1793 23.324V27.2C79.1793 27.52 79.2473 27.748 79.3833 27.884C79.5193 28.012 79.7553 28.076 80.0913 28.076H80.8953V29H79.9113C79.3033 29 78.8473 28.86 78.5433 28.58C78.2393 28.3 78.0873 27.84 78.0873 27.2V23.324H77.2353V22.424H78.0873V20.768H79.1793V22.424H80.8953V23.324H79.1793ZM87.6424 22.424L83.6824 32.096H82.5544L83.8504 28.928L81.1984 22.424H82.4104L84.4744 27.752L86.5144 22.424H87.6424ZM92.8633 24.488C92.4153 24.312 92.0713 24.056 91.8313 23.72C91.5913 23.384 91.4713 22.976 91.4713 22.496C91.4713 22.064 91.5793 21.676 91.7953 21.332C92.0113 20.98 92.3313 20.704 92.7553 20.504C93.1873 20.296 93.7073 20.192 94.3153 20.192C94.9233 20.192 95.4393 20.296 95.8633 20.504C96.2953 20.704 96.6193 20.98 96.8353 21.332C97.0593 21.676 97.1713 22.064 97.1713 22.496C97.1713 22.96 97.0473 23.368 96.7993 23.72C96.5513 24.064 96.2113 24.32 95.7793 24.488C96.2753 24.64 96.6673 24.908 96.9553 25.292C97.2513 25.668 97.3993 26.124 97.3993 26.66C97.3993 27.18 97.2713 27.636 97.0153 28.028C96.7593 28.412 96.3953 28.712 95.9233 28.928C95.4593 29.136 94.9233 29.24 94.3153 29.24C93.7073 29.24 93.1713 29.136 92.7073 28.928C92.2513 28.712 91.8953 28.412 91.6393 28.028C91.3833 27.636 91.2553 27.18 91.2553 26.66C91.2553 26.124 91.3993 25.664 91.6873 25.28C91.9753 24.896 92.3673 24.632 92.8633 24.488ZM96.1153 22.628C96.1153 22.14 95.9553 21.764 95.6353 21.5C95.3153 21.236 94.8753 21.104 94.3153 21.104C93.7633 21.104 93.3273 21.236 93.0073 21.5C92.6873 21.764 92.5273 22.144 92.5273 22.64C92.5273 23.088 92.6913 23.448 93.0193 23.72C93.3553 23.992 93.7873 24.128 94.3153 24.128C94.8513 24.128 95.2833 23.992 95.6113 23.72C95.9473 23.44 96.1153 23.076 96.1153 22.628ZM94.3153 24.968C93.7233 24.968 93.2393 25.108 92.8633 25.388C92.4873 25.66 92.2993 26.072 92.2993 26.624C92.2993 27.136 92.4793 27.548 92.8393 27.86C93.2073 28.172 93.6993 28.328 94.3153 28.328C94.9313 28.328 95.4193 28.172 95.7793 27.86C96.1393 27.548 96.3193 27.136 96.3193 26.624C96.3193 26.088 96.1353 25.68 95.7673 25.4C95.3993 25.112 94.9153 24.968 94.3153 24.968ZM98.5856 22.508C98.6416 21.772 98.9256 21.196 99.4376 20.78C99.9496 20.364 100.614 20.156 101.43 20.156C101.974 20.156 102.442 20.256 102.834 20.456C103.234 20.648 103.534 20.912 103.734 21.248C103.942 21.584 104.046 21.964 104.046 22.388C104.046 22.884 103.902 23.312 103.614 23.672C103.334 24.032 102.966 24.264 102.51 24.368V24.428C103.03 24.556 103.442 24.808 103.746 25.184C104.05 25.56 104.202 26.052 104.202 26.66C104.202 27.116 104.098 27.528 103.89 27.896C103.682 28.256 103.37 28.54 102.954 28.748C102.538 28.956 102.038 29.06 101.454 29.06C100.606 29.06 99.9096 28.84 99.3656 28.4C98.8216 27.952 98.5176 27.32 98.4536 26.504H99.5096C99.5656 26.984 99.7616 27.376 100.098 27.68C100.434 27.984 100.882 28.136 101.442 28.136C102.002 28.136 102.426 27.992 102.714 27.704C103.01 27.408 103.158 27.028 103.158 26.564C103.158 25.964 102.958 25.532 102.558 25.268C102.158 25.004 101.554 24.872 100.746 24.872H100.47V23.96H100.758C101.494 23.952 102.05 23.832 102.426 23.6C102.802 23.36 102.99 22.992 102.99 22.496C102.99 22.072 102.85 21.732 102.57 21.476C102.298 21.22 101.906 21.092 101.394 21.092C100.898 21.092 100.498 21.22 100.194 21.476C99.8896 21.732 99.7096 22.076 99.6536 22.508H98.5856ZM105.196 22.28C105.196 21.736 105.36 21.304 105.688 20.984C106.016 20.656 106.436 20.492 106.948 20.492C107.46 20.492 107.88 20.656 108.208 20.984C108.536 21.304 108.7 21.736 108.7 22.28C108.7 22.832 108.536 23.272 108.208 23.6C107.88 23.92 107.46 24.08 106.948 24.08C106.436 24.08 106.016 23.92 105.688 23.6C105.36 23.272 105.196 22.832 105.196 22.28ZM112.204 20.624L107.344 29H106.264L111.124 20.624H112.204ZM106.948 21.164C106.676 21.164 106.46 21.26 106.3 21.452C106.148 21.636 106.072 21.912 106.072 22.28C106.072 22.648 106.148 22.928 106.3 23.12C106.46 23.312 106.676 23.408 106.948 23.408C107.22 23.408 107.436 23.312 107.596 23.12C107.756 22.92 107.836 22.64 107.836 22.28C107.836 21.912 107.756 21.636 107.596 21.452C107.436 21.26 107.22 21.164 106.948 21.164ZM109.792 27.344C109.792 26.792 109.956 26.356 110.284 26.036C110.612 25.708 111.032 25.544 111.544 25.544C112.056 25.544 112.472 25.708 112.792 26.036C113.12 26.356 113.284 26.792 113.284 27.344C113.284 27.888 113.12 28.324 112.792 28.652C112.472 28.98 112.056 29.144 111.544 29.144C111.032 29.144 110.612 28.984 110.284 28.664C109.956 28.336 109.792 27.896 109.792 27.344ZM111.532 26.228C111.26 26.228 111.044 26.324 110.884 26.516C110.724 26.7 110.644 26.976 110.644 27.344C110.644 27.704 110.724 27.98 110.884 28.172C111.044 28.356 111.26 28.448 111.532 28.448C111.804 28.448 112.02 28.356 112.18 28.172C112.34 27.98 112.42 27.704 112.42 27.344C112.42 26.976 112.34 26.7 112.18 26.516C112.02 26.324 111.804 26.228 111.532 26.228Z" fill="white"/>
<path d="M38.328 6.488C37.88 6.312 37.536 6.056 37.296 5.72C37.056 5.384 36.936 4.976 36.936 4.496C36.936 4.064 37.044 3.676 37.26 3.332C37.476 2.98 37.796 2.704 38.22 2.504C38.652 2.296 39.172 2.192 39.78 2.192C40.388 2.192 40.904 2.296 41.328 2.504C41.76 2.704 42.084 2.98 42.3 3.332C42.524 3.676 42.636 4.064 42.636 4.496C42.636 4.96 42.512 5.368 42.264 5.72C42.016 6.064 41.676 6.32 41.244 6.488C41.74 6.64 42.132 6.908 42.42 7.292C42.716 7.668 42.864 8.124 42.864 8.66C42.864 9.18 42.736 9.636 42.48 10.028C42.224 10.412 41.86 10.712 41.388 10.928C40.924 11.136 40.388 11.24 39.78 11.24C39.172 11.24 38.636 11.136 38.172 10.928C37.716 10.712 37.36 10.412 37.104 10.028C36.848 9.636 36.72 9.18 36.72 8.66C36.72 8.124 36.864 7.664 37.152 7.28C37.44 6.896 37.832 6.632 38.328 6.488ZM41.58 4.628C41.58 4.14 41.42 3.764 41.1 3.5C40.78 3.236 40.34 3.104 39.78 3.104C39.228 3.104 38.792 3.236 38.472 3.5C38.152 3.764 37.992 4.144 37.992 4.64C37.992 5.088 38.156 5.448 38.484 5.72C38.82 5.992 39.252 6.128 39.78 6.128C40.316 6.128 40.748 5.992 41.076 5.72C41.412 5.44 41.58 5.076 41.58 4.628ZM39.78 6.968C39.188 6.968 38.704 7.108 38.328 7.388C37.952 7.66 37.764 8.072 37.764 8.624C37.764 9.136 37.944 9.548 38.304 9.86C38.672 10.172 39.164 10.328 39.78 10.328C40.396 10.328 40.884 10.172 41.244 9.86C41.604 9.548 41.784 9.136 41.784 8.624C41.784 8.088 41.6 7.68 41.232 7.4C40.864 7.112 40.38 6.968 39.78 6.968ZM44.0503 4.508C44.1063 3.772 44.3903 3.196 44.9023 2.78C45.4143 2.364 46.0783 2.156 46.8943 2.156C47.4383 2.156 47.9063 2.256 48.2983 2.456C48.6983 2.648 48.9983 2.912 49.1983 3.248C49.4063 3.584 49.5103 3.964 49.5103 4.388C49.5103 4.884 49.3663 5.312 49.0783 5.672C48.7983 6.032 48.4303 6.264 47.9743 6.368V6.428C48.4943 6.556 48.9063 6.808 49.2103 7.184C49.5143 7.56 49.6663 8.052 49.6663 8.66C49.6663 9.116 49.5623 9.528 49.3543 9.896C49.1463 10.256 48.8343 10.54 48.4183 10.748C48.0023 10.956 47.5023 11.06 46.9183 11.06C46.0703 11.06 45.3743 10.84 44.8303 10.4C44.2863 9.952 43.9823 9.32 43.9183 8.504H44.9743C45.0303 8.984 45.2263 9.376 45.5623 9.68C45.8983 9.984 46.3463 10.136 46.9063 10.136C47.4663 10.136 47.8903 9.992 48.1783 9.704C48.4743 9.408 48.6223 9.028 48.6223 8.564C48.6223 7.964 48.4223 7.532 48.0223 7.268C47.6223 7.004 47.0183 6.872 46.2103 6.872H45.9343V5.96H46.2223C46.9583 5.952 47.5143 5.832 47.8903 5.6C48.2663 5.36 48.4543 4.992 48.4543 4.496C48.4543 4.072 48.3143 3.732 48.0343 3.476C47.7623 3.22 47.3703 3.092 46.8583 3.092C46.3623 3.092 45.9623 3.22 45.6583 3.476C45.3543 3.732 45.1743 4.076 45.1183 4.508H44.0503ZM50.6607 4.28C50.6607 3.736 50.8247 3.304 51.1527 2.984C51.4807 2.656 51.9007 2.492 52.4127 2.492C52.9247 2.492 53.3447 2.656 53.6727 2.984C54.0007 3.304 54.1647 3.736 54.1647 4.28C54.1647 4.832 54.0007 5.272 53.6727 5.6C53.3447 5.92 52.9247 6.08 52.4127 6.08C51.9007 6.08 51.4807 5.92 51.1527 5.6C50.8247 5.272 50.6607 4.832 50.6607 4.28ZM57.6687 2.624L52.8087 11H51.7287L56.5887 2.624H57.6687ZM52.4127 3.164C52.1407 3.164 51.9247 3.26 51.7647 3.452C51.6127 3.636 51.5367 3.912 51.5367 4.28C51.5367 4.648 51.6127 4.928 51.7647 5.12C51.9247 5.312 52.1407 5.408 52.4127 5.408C52.6847 5.408 52.9007 5.312 53.0607 5.12C53.2207 4.92 53.3007 4.64 53.3007 4.28C53.3007 3.912 53.2207 3.636 53.0607 3.452C52.9007 3.26 52.6847 3.164 52.4127 3.164ZM55.2567 9.344C55.2567 8.792 55.4207 8.356 55.7487 8.036C56.0767 7.708 56.4967 7.544 57.0087 7.544C57.5207 7.544 57.9367 7.708 58.2567 8.036C58.5847 8.356 58.7487 8.792 58.7487 9.344C58.7487 9.888 58.5847 10.324 58.2567 10.652C57.9367 10.98 57.5207 11.144 57.0087 11.144C56.4967 11.144 56.0767 10.984 55.7487 10.664C55.4207 10.336 55.2567 9.896 55.2567 9.344ZM56.9967 8.228C56.7247 8.228 56.5087 8.324 56.3487 8.516C56.1887 8.7 56.1087 8.976 56.1087 9.344C56.1087 9.704 56.1887 9.98 56.3487 10.172C56.5087 10.356 56.7247 10.448 56.9967 10.448C57.2687 10.448 57.4847 10.356 57.6447 10.172C57.8047 9.98 57.8847 9.704 57.8847 9.344C57.8847 8.976 57.8047 8.7 57.6447 8.516C57.4847 8.324 57.2687 8.228 56.9967 8.228Z" fill="white"/>
<path d="M25 20.0001C25 25.5232 21.5231 29.0001 16 29.0001C10.4769 29.0001 7 25.5232 7 20.0001C7 14.0732 13.4519 6.07193 15.4306 3.75755C15.501 3.67533 15.5884 3.60931 15.6867 3.56406C15.7851 3.5188 15.8921 3.49536 16.0003 3.49536C16.1086 3.49536 16.2155 3.5188 16.3139 3.56406C16.4122 3.60931 16.4996 3.67533 16.57 3.75755C18.5481 6.07193 25 14.0732 25 20.0001Z" stroke="white" stroke-width="2" stroke-miterlimit="10"/>
<path d="M21.5 20.5C21.5 21.6935 21.0259 22.8381 20.182 23.682C19.3381 24.5259 18.1935 25 17 25" stroke="white" stroke-width="2" stroke-linecap="round" stroke-linejoin="round"/>
</svg>
