<svg width="326" height="106" viewBox="0 0 326 106" fill="none" xmlns="http://www.w3.org/2000/svg">
<path d="M64.516 96.084C64.516 96.78 64.276 97.36 63.796 97.824C63.324 98.28 62.6 98.508 61.624 98.508H60.016V102H58.924V93.636H61.624C62.568 93.636 63.284 93.864 63.772 94.32C64.268 94.776 64.516 95.364 64.516 96.084ZM61.624 97.608C62.232 97.608 62.68 97.476 62.968 97.212C63.256 96.948 63.4 96.572 63.4 96.084C63.4 95.052 62.808 94.536 61.624 94.536H60.016V97.608H61.624ZM66.7252 96.492C66.9172 96.116 67.1892 95.824 67.5412 95.616C67.9012 95.408 68.3372 95.304 68.8492 95.304V96.432H68.5612C67.3372 96.432 66.7252 97.096 66.7252 98.424V102H65.6332V95.424H66.7252V96.492ZM75.8698 98.46C75.8698 98.668 75.8578 98.888 75.8338 99.12H70.5778C70.6178 99.768 70.8378 100.276 71.2378 100.644C71.6458 101.004 72.1378 101.184 72.7138 101.184C73.1858 101.184 73.5778 101.076 73.8898 100.86C74.2098 100.636 74.4338 100.34 74.5618 99.972H75.7378C75.5618 100.604 75.2098 101.12 74.6818 101.52C74.1538 101.912 73.4978 102.108 72.7138 102.108C72.0898 102.108 71.5298 101.968 71.0338 101.688C70.5458 101.408 70.1618 101.012 69.8818 100.5C69.6018 99.98 69.4618 99.38 69.4618 98.7C69.4618 98.02 69.5978 97.424 69.8698 96.912C70.1418 96.4 70.5218 96.008 71.0098 95.736C71.5058 95.456 72.0738 95.316 72.7138 95.316C73.3378 95.316 73.8898 95.452 74.3698 95.724C74.8498 95.996 75.2178 96.372 75.4738 96.852C75.7378 97.324 75.8698 97.86 75.8698 98.46ZM74.7418 98.232C74.7418 97.816 74.6498 97.46 74.4658 97.164C74.2818 96.86 74.0298 96.632 73.7098 96.48C73.3978 96.32 73.0498 96.24 72.6658 96.24C72.1138 96.24 71.6418 96.416 71.2498 96.768C70.8658 97.12 70.6458 97.608 70.5898 98.232H74.7418ZM79.3992 102.108C78.8952 102.108 78.4432 102.024 78.0432 101.856C77.6432 101.68 77.3272 101.44 77.0952 101.136C76.8632 100.824 76.7352 100.468 76.7112 100.068H77.8392C77.8712 100.396 78.0232 100.664 78.2952 100.872C78.5752 101.08 78.9392 101.184 79.3872 101.184C79.8032 101.184 80.1312 101.092 80.3712 100.908C80.6112 100.724 80.7312 100.492 80.7312 100.212C80.7312 99.924 80.6032 99.712 80.3472 99.576C80.0912 99.432 79.6952 99.292 79.1592 99.156C78.6712 99.028 78.2712 98.9 77.9592 98.772C77.6552 98.636 77.3912 98.44 77.1672 98.184C76.9512 97.92 76.8432 97.576 76.8432 97.152C76.8432 96.816 76.9432 96.508 77.1432 96.228C77.3432 95.948 77.6272 95.728 77.9952 95.568C78.3632 95.4 78.7832 95.316 79.2552 95.316C79.9832 95.316 80.5712 95.5 81.0192 95.868C81.4672 96.236 81.7072 96.74 81.7392 97.38H80.6472C80.6232 97.036 80.4832 96.76 80.2272 96.552C79.9792 96.344 79.6432 96.24 79.2192 96.24C78.8272 96.24 78.5152 96.324 78.2832 96.492C78.0512 96.66 77.9352 96.88 77.9352 97.152C77.9352 97.368 78.0032 97.548 78.1392 97.692C78.2832 97.828 78.4592 97.94 78.6672 98.028C78.8832 98.108 79.1792 98.2 79.5552 98.304C80.0272 98.432 80.4112 98.56 80.7072 98.688C81.0032 98.808 81.2552 98.992 81.4632 99.24C81.6792 99.488 81.7912 99.812 81.7992 100.212C81.7992 100.572 81.6992 100.896 81.4992 101.184C81.2992 101.472 81.0152 101.7 80.6472 101.868C80.2872 102.028 79.8712 102.108 79.3992 102.108ZM85.4287 102.108C84.9247 102.108 84.4727 102.024 84.0727 101.856C83.6727 101.68 83.3567 101.44 83.1247 101.136C82.8927 100.824 82.7647 100.468 82.7407 100.068H83.8687C83.9007 100.396 84.0527 100.664 84.3247 100.872C84.6047 101.08 84.9687 101.184 85.4167 101.184C85.8327 101.184 86.1607 101.092 86.4007 100.908C86.6407 100.724 86.7607 100.492 86.7607 100.212C86.7607 99.924 86.6327 99.712 86.3767 99.576C86.1207 99.432 85.7247 99.292 85.1887 99.156C84.7007 99.028 84.3007 98.9 83.9887 98.772C83.6847 98.636 83.4207 98.44 83.1967 98.184C82.9807 97.92 82.8727 97.576 82.8727 97.152C82.8727 96.816 82.9727 96.508 83.1727 96.228C83.3727 95.948 83.6567 95.728 84.0247 95.568C84.3927 95.4 84.8127 95.316 85.2847 95.316C86.0127 95.316 86.6007 95.5 87.0487 95.868C87.4967 96.236 87.7367 96.74 87.7687 97.38H86.6767C86.6527 97.036 86.5127 96.76 86.2567 96.552C86.0087 96.344 85.6727 96.24 85.2487 96.24C84.8567 96.24 84.5447 96.324 84.3127 96.492C84.0807 96.66 83.9647 96.88 83.9647 97.152C83.9647 97.368 84.0327 97.548 84.1687 97.692C84.3127 97.828 84.4887 97.94 84.6967 98.028C84.9127 98.108 85.2087 98.2 85.5847 98.304C86.0567 98.432 86.4407 98.56 86.7367 98.688C87.0327 98.808 87.2847 98.992 87.4927 99.24C87.7087 99.488 87.8207 99.812 87.8287 100.212C87.8287 100.572 87.7287 100.896 87.5287 101.184C87.3287 101.472 87.0447 101.7 86.6767 101.868C86.3167 102.028 85.9007 102.108 85.4287 102.108ZM94.9622 95.424V102H93.8702V101.028C93.6622 101.364 93.3702 101.628 92.9942 101.82C92.6262 102.004 92.2182 102.096 91.7702 102.096C91.2582 102.096 90.7982 101.992 90.3902 101.784C89.9822 101.568 89.6582 101.248 89.4182 100.824C89.1862 100.4 89.0702 99.884 89.0702 99.276V95.424H90.1502V99.132C90.1502 99.78 90.3142 100.28 90.6422 100.632C90.9702 100.976 91.4182 101.148 91.9862 101.148C92.5702 101.148 93.0302 100.968 93.3662 100.608C93.7022 100.248 93.8702 99.724 93.8702 99.036V95.424H94.9622ZM97.658 96.492C97.85 96.116 98.122 95.824 98.474 95.616C98.834 95.408 99.27 95.304 99.782 95.304V96.432H99.494C98.27 96.432 97.658 97.096 97.658 98.424V102H96.566V95.424H97.658V96.492ZM106.803 98.46C106.803 98.668 106.791 98.888 106.767 99.12H101.511C101.551 99.768 101.771 100.276 102.171 100.644C102.579 101.004 103.071 101.184 103.647 101.184C104.119 101.184 104.511 101.076 104.823 100.86C105.143 100.636 105.367 100.34 105.495 99.972H106.671C106.495 100.604 106.143 101.12 105.615 101.52C105.087 101.912 104.431 102.108 103.647 102.108C103.023 102.108 102.463 101.968 101.967 101.688C101.479 101.408 101.095 101.012 100.815 100.5C100.535 99.98 100.395 99.38 100.395 98.7C100.395 98.02 100.531 97.424 100.803 96.912C101.075 96.4 101.455 96.008 101.943 95.736C102.439 95.456 103.007 95.316 103.647 95.316C104.271 95.316 104.823 95.452 105.303 95.724C105.783 95.996 106.151 96.372 106.407 96.852C106.671 97.324 106.803 97.86 106.803 98.46ZM105.675 98.232C105.675 97.816 105.583 97.46 105.399 97.164C105.215 96.86 104.963 96.632 104.643 96.48C104.331 96.32 103.983 96.24 103.599 96.24C103.047 96.24 102.575 96.416 102.183 96.768C101.799 97.12 101.579 97.608 101.523 98.232H105.675Z" fill="white"/>
<path d="M58.456 76.32V75.324H60.712V84H59.608V76.32H58.456ZM62.3478 79.572C62.3478 78.196 62.5718 77.124 63.0198 76.356C63.4678 75.58 64.2518 75.192 65.3718 75.192C66.4838 75.192 67.2638 75.58 67.7118 76.356C68.1597 77.124 68.3837 78.196 68.3837 79.572C68.3837 80.972 68.1597 82.06 67.7118 82.836C67.2638 83.612 66.4838 84 65.3718 84C64.2518 84 63.4678 83.612 63.0198 82.836C62.5718 82.06 62.3478 80.972 62.3478 79.572ZM67.3038 79.572C67.3038 78.876 67.2558 78.288 67.1598 77.808C67.0718 77.32 66.8838 76.928 66.5958 76.632C66.3158 76.336 65.9078 76.188 65.3718 76.188C64.8278 76.188 64.4118 76.336 64.1238 76.632C63.8438 76.928 63.6558 77.32 63.5598 77.808C63.4718 78.288 63.4278 78.876 63.4278 79.572C63.4278 80.292 63.4718 80.896 63.5598 81.384C63.6558 81.872 63.8438 82.264 64.1238 82.56C64.4118 82.856 64.8278 83.004 65.3718 83.004C65.9078 83.004 66.3158 82.856 66.5958 82.56C66.8838 82.264 67.0718 81.872 67.1598 81.384C67.2558 80.896 67.3038 80.292 67.3038 79.572ZM69.3549 76.32V75.324H71.6109V84H70.5069V76.32H69.3549ZM73.2467 79.572C73.2467 78.196 73.4707 77.124 73.9187 76.356C74.3667 75.58 75.1507 75.192 76.2707 75.192C77.3827 75.192 78.1627 75.58 78.6107 76.356C79.0587 77.124 79.2827 78.196 79.2827 79.572C79.2827 80.972 79.0587 82.06 78.6107 82.836C78.1627 83.612 77.3827 84 76.2707 84C75.1507 84 74.3667 83.612 73.9187 82.836C73.4707 82.06 73.2467 80.972 73.2467 79.572ZM78.2027 79.572C78.2027 78.876 78.1547 78.288 78.0587 77.808C77.9707 77.32 77.7827 76.928 77.4947 76.632C77.2147 76.336 76.8067 76.188 76.2707 76.188C75.7267 76.188 75.3107 76.336 75.0227 76.632C74.7427 76.928 74.5547 77.32 74.4587 77.808C74.3707 78.288 74.3267 78.876 74.3267 79.572C74.3267 80.292 74.3707 80.896 74.4587 81.384C74.5547 81.872 74.7427 82.264 75.0227 82.56C75.3107 82.856 75.7267 83.004 76.2707 83.004C76.8067 83.004 77.2147 82.856 77.4947 82.56C77.7827 82.264 77.9707 81.872 78.0587 81.384C78.1547 80.896 78.2027 80.292 78.2027 79.572ZM91.589 77.304C92.101 77.304 92.557 77.412 92.957 77.628C93.357 77.836 93.673 78.152 93.905 78.576C94.137 79 94.253 79.516 94.253 80.124V84H93.173V80.28C93.173 79.624 93.009 79.124 92.681 78.78C92.361 78.428 91.925 78.252 91.373 78.252C90.805 78.252 90.353 78.436 90.017 78.804C89.681 79.164 89.513 79.688 89.513 80.376V84H88.433V80.28C88.433 79.624 88.269 79.124 87.941 78.78C87.621 78.428 87.185 78.252 86.633 78.252C86.065 78.252 85.613 78.436 85.277 78.804C84.941 79.164 84.773 79.688 84.773 80.376V84H83.681V77.424H84.773V78.372C84.989 78.028 85.277 77.764 85.637 77.58C86.005 77.396 86.409 77.304 86.849 77.304C87.401 77.304 87.889 77.428 88.313 77.676C88.737 77.924 89.053 78.288 89.261 78.768C89.445 78.304 89.749 77.944 90.173 77.688C90.597 77.432 91.069 77.304 91.589 77.304ZM96.8963 78.648C97.1203 78.256 97.4483 77.936 97.8803 77.688C98.3123 77.44 98.8043 77.316 99.3563 77.316C99.9483 77.316 100.48 77.456 100.952 77.736C101.424 78.016 101.796 78.412 102.068 78.924C102.34 79.428 102.476 80.016 102.476 80.688C102.476 81.352 102.34 81.944 102.068 82.464C101.796 82.984 101.42 83.388 100.94 83.676C100.468 83.964 99.9403 84.108 99.3563 84.108C98.7883 84.108 98.2883 83.984 97.8563 83.736C97.4323 83.488 97.1123 83.172 96.8963 82.788V84H95.8043V75.12H96.8963V78.648ZM101.36 80.688C101.36 80.192 101.26 79.76 101.06 79.392C100.86 79.024 100.588 78.744 100.244 78.552C99.9083 78.36 99.5363 78.264 99.1283 78.264C98.7283 78.264 98.3563 78.364 98.0123 78.564C97.6763 78.756 97.4043 79.04 97.1963 79.416C96.9963 79.784 96.8963 80.212 96.8963 80.7C96.8963 81.196 96.9963 81.632 97.1963 82.008C97.4043 82.376 97.6763 82.66 98.0123 82.86C98.3563 83.052 98.7283 83.148 99.1283 83.148C99.5363 83.148 99.9083 83.052 100.244 82.86C100.588 82.66 100.86 82.376 101.06 82.008C101.26 81.632 101.36 81.192 101.36 80.688ZM103.266 80.688C103.266 80.016 103.402 79.428 103.674 78.924C103.946 78.412 104.318 78.016 104.79 77.736C105.27 77.456 105.802 77.316 106.386 77.316C106.962 77.316 107.462 77.44 107.886 77.688C108.31 77.936 108.626 78.248 108.834 78.624V77.424H109.938V84H108.834V82.776C108.618 83.16 108.294 83.48 107.862 83.736C107.438 83.984 106.942 84.108 106.374 84.108C105.79 84.108 105.262 83.964 104.79 83.676C104.318 83.388 103.946 82.984 103.674 82.464C103.402 81.944 103.266 81.352 103.266 80.688ZM108.834 80.7C108.834 80.204 108.734 79.772 108.534 79.404C108.334 79.036 108.062 78.756 107.718 78.564C107.382 78.364 107.01 78.264 106.602 78.264C106.194 78.264 105.822 78.36 105.486 78.552C105.15 78.744 104.882 79.024 104.682 79.392C104.482 79.76 104.382 80.192 104.382 80.688C104.382 81.192 104.482 81.632 104.682 82.008C104.882 82.376 105.15 82.66 105.486 82.86C105.822 83.052 106.194 83.148 106.602 83.148C107.01 83.148 107.382 83.052 107.718 82.86C108.062 82.66 108.334 82.376 108.534 82.008C108.734 81.632 108.834 81.196 108.834 80.7ZM112.635 78.492C112.827 78.116 113.099 77.824 113.451 77.616C113.811 77.408 114.247 77.304 114.759 77.304V78.432H114.471C113.247 78.432 112.635 79.096 112.635 80.424V84H111.543V77.424H112.635V78.492Z" fill="white"/>
<path d="M38 75.6666C39.1066 75.6665 40.1714 76.0898 40.9759 76.8497C41.7804 77.6096 42.2637 78.6485 42.3267 79.7533L42.3333 80L42.3347 90.6026L42.4413 90.6946C43.6839 91.8024 44.466 93.3357 44.6333 94.992L44.6587 95.328L44.6667 95.6666C44.6669 96.765 44.3956 97.8465 43.8771 98.8148C43.3586 99.7832 42.6089 100.608 41.6946 101.217C40.7802 101.826 39.7297 102.199 38.6363 102.304C37.5429 102.409 36.4405 102.242 35.4272 101.818C34.4139 101.394 33.521 100.726 32.8279 99.8742C32.1348 99.022 31.6631 98.0118 31.4546 96.9334C31.246 95.8549 31.3072 94.7417 31.6327 93.6926C31.9581 92.6435 32.5377 91.691 33.32 90.92L33.56 90.6933L33.6653 90.6026L33.6667 80C33.6664 78.935 34.0584 77.9073 34.7676 77.113C35.4769 76.3186 36.4539 75.8132 37.512 75.6933L37.7547 75.6733L38 75.6666ZM38 77.6666C37.4142 77.6667 36.8499 77.8871 36.4191 78.284C35.9883 78.681 35.7225 79.2255 35.6747 79.8093L35.6667 80V91.592L35.2547 91.892C34.4675 92.4645 33.8791 93.2689 33.5718 94.1925C33.2645 95.1161 33.2537 96.1127 33.5408 97.0427C33.828 97.9727 34.3988 98.7897 35.1734 99.3792C35.9479 99.9688 36.8874 100.301 37.8604 100.33C38.8333 100.36 39.791 100.084 40.5994 99.5414C41.4077 98.9992 42.0263 98.2178 42.3685 97.3065C42.7107 96.3953 42.7594 95.3999 42.5078 94.4596C42.2562 93.5193 41.7169 92.6812 40.9653 92.0626L40.7453 91.8933L40.336 91.5933L40.3333 80C40.3333 79.3811 40.0875 78.7876 39.6499 78.35C39.2123 77.9125 38.6188 77.6666 38 77.6666ZM38 83.6666C38.2652 83.6666 38.5196 83.772 38.7071 83.9595C38.8946 84.1471 39 84.4014 39 84.6666V92.4866C39.7601 92.7256 40.4095 93.2287 40.8307 93.9051C41.2518 94.5814 41.4169 95.3862 41.2961 96.1737C41.1752 96.9612 40.7764 97.6794 40.1718 98.1983C39.5672 98.7172 38.7967 99.0025 38 99.0025C37.2033 99.0025 36.4328 98.7172 35.8282 98.1983C35.2236 97.6794 34.8248 96.9612 34.7039 96.1737C34.5831 95.3862 34.7482 94.5814 35.1693 93.9051C35.5905 93.2287 36.2399 92.7256 37 92.4866V84.6666C37 84.4014 37.1054 84.1471 37.2929 83.9595C37.4804 83.772 37.7348 83.6666 38 83.6666Z" fill="white"/>
<path d="M225.368 93.636V102H224.276V98.208H220.016V102H218.924V93.636H220.016V97.308H224.276V93.636H225.368ZM232.825 95.424V102H231.733V101.028C231.525 101.364 231.233 101.628 230.857 101.82C230.489 102.004 230.081 102.096 229.633 102.096C229.121 102.096 228.661 101.992 228.253 101.784C227.845 101.568 227.521 101.248 227.281 100.824C227.049 100.4 226.933 99.884 226.933 99.276V95.424H228.013V99.132C228.013 99.78 228.177 100.28 228.505 100.632C228.833 100.976 229.281 101.148 229.849 101.148C230.433 101.148 230.893 100.968 231.229 100.608C231.565 100.248 231.733 99.724 231.733 99.036V95.424H232.825ZM242.336 95.304C242.848 95.304 243.304 95.412 243.704 95.628C244.104 95.836 244.42 96.152 244.652 96.576C244.884 97 245 97.516 245 98.124V102H243.92V98.28C243.92 97.624 243.756 97.124 243.428 96.78C243.108 96.428 242.672 96.252 242.12 96.252C241.552 96.252 241.1 96.436 240.764 96.804C240.428 97.164 240.26 97.688 240.26 98.376V102H239.18V98.28C239.18 97.624 239.016 97.124 238.688 96.78C238.368 96.428 237.932 96.252 237.38 96.252C236.812 96.252 236.36 96.436 236.024 96.804C235.688 97.164 235.52 97.688 235.52 98.376V102H234.428V95.424H235.52V96.372C235.736 96.028 236.024 95.764 236.384 95.58C236.752 95.396 237.156 95.304 237.596 95.304C238.148 95.304 238.636 95.428 239.06 95.676C239.484 95.924 239.8 96.288 240.008 96.768C240.192 96.304 240.496 95.944 240.92 95.688C241.344 95.432 241.816 95.304 242.336 95.304ZM247.116 94.356C246.908 94.356 246.732 94.284 246.588 94.14C246.444 93.996 246.372 93.82 246.372 93.612C246.372 93.404 246.444 93.228 246.588 93.084C246.732 92.94 246.908 92.868 247.116 92.868C247.316 92.868 247.484 92.94 247.62 93.084C247.764 93.228 247.836 93.404 247.836 93.612C247.836 93.82 247.764 93.996 247.62 94.14C247.484 94.284 247.316 94.356 247.116 94.356ZM247.644 95.424V102H246.552V95.424H247.644ZM248.857 98.688C248.857 98.016 248.993 97.428 249.265 96.924C249.537 96.412 249.909 96.016 250.381 95.736C250.861 95.456 251.397 95.316 251.989 95.316C252.501 95.316 252.977 95.436 253.417 95.676C253.857 95.908 254.193 96.216 254.425 96.6V93.12H255.529V102H254.425V100.764C254.209 101.156 253.889 101.48 253.465 101.736C253.041 101.984 252.545 102.108 251.977 102.108C251.393 102.108 250.861 101.964 250.381 101.676C249.909 101.388 249.537 100.984 249.265 100.464C248.993 99.944 248.857 99.352 248.857 98.688ZM254.425 98.7C254.425 98.204 254.325 97.772 254.125 97.404C253.925 97.036 253.653 96.756 253.309 96.564C252.973 96.364 252.601 96.264 252.193 96.264C251.785 96.264 251.413 96.36 251.077 96.552C250.741 96.744 250.473 97.024 250.273 97.392C250.073 97.76 249.973 98.192 249.973 98.688C249.973 99.192 250.073 99.632 250.273 100.008C250.473 100.376 250.741 100.66 251.077 100.86C251.413 101.052 251.785 101.148 252.193 101.148C252.601 101.148 252.973 101.052 253.309 100.86C253.653 100.66 253.925 100.376 254.125 100.008C254.325 99.632 254.425 99.196 254.425 98.7ZM257.698 94.356C257.49 94.356 257.314 94.284 257.17 94.14C257.026 93.996 256.954 93.82 256.954 93.612C256.954 93.404 257.026 93.228 257.17 93.084C257.314 92.94 257.49 92.868 257.698 92.868C257.898 92.868 258.066 92.94 258.202 93.084C258.346 93.228 258.418 93.404 258.418 93.612C258.418 93.82 258.346 93.996 258.202 94.14C258.066 94.284 257.898 94.356 257.698 94.356ZM258.226 95.424V102H257.134V95.424H258.226ZM261.179 96.324V100.2C261.179 100.52 261.247 100.748 261.383 100.884C261.519 101.012 261.755 101.076 262.091 101.076H262.895V102H261.911C261.303 102 260.847 101.86 260.543 101.58C260.239 101.3 260.087 100.84 260.087 100.2V96.324H259.235V95.424H260.087V93.768H261.179V95.424H262.895V96.324H261.179ZM269.642 95.424L265.682 105.096H264.554L265.85 101.928L263.198 95.424H264.41L266.474 100.752L268.514 95.424H269.642ZM274.863 97.488C274.415 97.312 274.071 97.056 273.831 96.72C273.591 96.384 273.471 95.976 273.471 95.496C273.471 95.064 273.579 94.676 273.795 94.332C274.011 93.98 274.331 93.704 274.755 93.504C275.187 93.296 275.707 93.192 276.315 93.192C276.923 93.192 277.439 93.296 277.863 93.504C278.295 93.704 278.619 93.98 278.835 94.332C279.059 94.676 279.171 95.064 279.171 95.496C279.171 95.96 279.047 96.368 278.799 96.72C278.551 97.064 278.211 97.32 277.779 97.488C278.275 97.64 278.667 97.908 278.955 98.292C279.251 98.668 279.399 99.124 279.399 99.66C279.399 100.18 279.271 100.636 279.015 101.028C278.759 101.412 278.395 101.712 277.923 101.928C277.459 102.136 276.923 102.24 276.315 102.24C275.707 102.24 275.171 102.136 274.707 101.928C274.251 101.712 273.895 101.412 273.639 101.028C273.383 100.636 273.255 100.18 273.255 99.66C273.255 99.124 273.399 98.664 273.687 98.28C273.975 97.896 274.367 97.632 274.863 97.488ZM278.115 95.628C278.115 95.14 277.955 94.764 277.635 94.5C277.315 94.236 276.875 94.104 276.315 94.104C275.763 94.104 275.327 94.236 275.007 94.5C274.687 94.764 274.527 95.144 274.527 95.64C274.527 96.088 274.691 96.448 275.019 96.72C275.355 96.992 275.787 97.128 276.315 97.128C276.851 97.128 277.283 96.992 277.611 96.72C277.947 96.44 278.115 96.076 278.115 95.628ZM276.315 97.968C275.723 97.968 275.239 98.108 274.863 98.388C274.487 98.66 274.299 99.072 274.299 99.624C274.299 100.136 274.479 100.548 274.839 100.86C275.207 101.172 275.699 101.328 276.315 101.328C276.931 101.328 277.419 101.172 277.779 100.86C278.139 100.548 278.319 100.136 278.319 99.624C278.319 99.088 278.135 98.68 277.767 98.4C277.399 98.112 276.915 97.968 276.315 97.968ZM280.586 95.508C280.642 94.772 280.926 94.196 281.438 93.78C281.95 93.364 282.614 93.156 283.43 93.156C283.974 93.156 284.442 93.256 284.834 93.456C285.234 93.648 285.534 93.912 285.734 94.248C285.942 94.584 286.046 94.964 286.046 95.388C286.046 95.884 285.902 96.312 285.614 96.672C285.334 97.032 284.966 97.264 284.51 97.368V97.428C285.03 97.556 285.442 97.808 285.746 98.184C286.05 98.56 286.202 99.052 286.202 99.66C286.202 100.116 286.098 100.528 285.89 100.896C285.682 101.256 285.37 101.54 284.954 101.748C284.538 101.956 284.038 102.06 283.454 102.06C282.606 102.06 281.91 101.84 281.366 101.4C280.822 100.952 280.518 100.32 280.454 99.504H281.51C281.566 99.984 281.762 100.376 282.098 100.68C282.434 100.984 282.882 101.136 283.442 101.136C284.002 101.136 284.426 100.992 284.714 100.704C285.01 100.408 285.158 100.028 285.158 99.564C285.158 98.964 284.958 98.532 284.558 98.268C284.158 98.004 283.554 97.872 282.746 97.872H282.47V96.96H282.758C283.494 96.952 284.05 96.832 284.426 96.6C284.802 96.36 284.99 95.992 284.99 95.496C284.99 95.072 284.85 94.732 284.57 94.476C284.298 94.22 283.906 94.092 283.394 94.092C282.898 94.092 282.498 94.22 282.194 94.476C281.89 94.732 281.71 95.076 281.654 95.508H280.586ZM287.196 95.28C287.196 94.736 287.36 94.304 287.688 93.984C288.016 93.656 288.436 93.492 288.948 93.492C289.46 93.492 289.88 93.656 290.208 93.984C290.536 94.304 290.7 94.736 290.7 95.28C290.7 95.832 290.536 96.272 290.208 96.6C289.88 96.92 289.46 97.08 288.948 97.08C288.436 97.08 288.016 96.92 287.688 96.6C287.36 96.272 287.196 95.832 287.196 95.28ZM294.204 93.624L289.344 102H288.264L293.124 93.624H294.204ZM288.948 94.164C288.676 94.164 288.46 94.26 288.3 94.452C288.148 94.636 288.072 94.912 288.072 95.28C288.072 95.648 288.148 95.928 288.3 96.12C288.46 96.312 288.676 96.408 288.948 96.408C289.22 96.408 289.436 96.312 289.596 96.12C289.756 95.92 289.836 95.64 289.836 95.28C289.836 94.912 289.756 94.636 289.596 94.452C289.436 94.26 289.22 94.164 288.948 94.164ZM291.792 100.344C291.792 99.792 291.956 99.356 292.284 99.036C292.612 98.708 293.032 98.544 293.544 98.544C294.056 98.544 294.472 98.708 294.792 99.036C295.12 99.356 295.284 99.792 295.284 100.344C295.284 100.888 295.12 101.324 294.792 101.652C294.472 101.98 294.056 102.144 293.544 102.144C293.032 102.144 292.612 101.984 292.284 101.664C291.956 101.336 291.792 100.896 291.792 100.344ZM293.532 99.228C293.26 99.228 293.044 99.324 292.884 99.516C292.724 99.7 292.644 99.976 292.644 100.344C292.644 100.704 292.724 100.98 292.884 101.172C293.044 101.356 293.26 101.448 293.532 101.448C293.804 101.448 294.02 101.356 294.18 101.172C294.34 100.98 294.42 100.704 294.42 100.344C294.42 99.976 294.34 99.7 294.18 99.516C294.02 99.324 293.804 99.228 293.532 99.228Z" fill="white"/>
<path d="M220.328 79.488C219.88 79.312 219.536 79.056 219.296 78.72C219.056 78.384 218.936 77.976 218.936 77.496C218.936 77.064 219.044 76.676 219.26 76.332C219.476 75.98 219.796 75.704 220.22 75.504C220.652 75.296 221.172 75.192 221.78 75.192C222.388 75.192 222.904 75.296 223.328 75.504C223.76 75.704 224.084 75.98 224.3 76.332C224.524 76.676 224.636 77.064 224.636 77.496C224.636 77.96 224.512 78.368 224.264 78.72C224.016 79.064 223.676 79.32 223.244 79.488C223.74 79.64 224.132 79.908 224.42 80.292C224.716 80.668 224.864 81.124 224.864 81.66C224.864 82.18 224.736 82.636 224.48 83.028C224.224 83.412 223.86 83.712 223.388 83.928C222.924 84.136 222.388 84.24 221.78 84.24C221.172 84.24 220.636 84.136 220.172 83.928C219.716 83.712 219.36 83.412 219.104 83.028C218.848 82.636 218.72 82.18 218.72 81.66C218.72 81.124 218.864 80.664 219.152 80.28C219.44 79.896 219.832 79.632 220.328 79.488ZM223.58 77.628C223.58 77.14 223.42 76.764 223.1 76.5C222.78 76.236 222.34 76.104 221.78 76.104C221.228 76.104 220.792 76.236 220.472 76.5C220.152 76.764 219.992 77.144 219.992 77.64C219.992 78.088 220.156 78.448 220.484 78.72C220.82 78.992 221.252 79.128 221.78 79.128C222.316 79.128 222.748 78.992 223.076 78.72C223.412 78.44 223.58 78.076 223.58 77.628ZM221.78 79.968C221.188 79.968 220.704 80.108 220.328 80.388C219.952 80.66 219.764 81.072 219.764 81.624C219.764 82.136 219.944 82.548 220.304 82.86C220.672 83.172 221.164 83.328 221.78 83.328C222.396 83.328 222.884 83.172 223.244 82.86C223.604 82.548 223.784 82.136 223.784 81.624C223.784 81.088 223.6 80.68 223.232 80.4C222.864 80.112 222.38 79.968 221.78 79.968ZM226.05 77.508C226.106 76.772 226.39 76.196 226.902 75.78C227.414 75.364 228.078 75.156 228.894 75.156C229.438 75.156 229.906 75.256 230.298 75.456C230.698 75.648 230.998 75.912 231.198 76.248C231.406 76.584 231.51 76.964 231.51 77.388C231.51 77.884 231.366 78.312 231.078 78.672C230.798 79.032 230.43 79.264 229.974 79.368V79.428C230.494 79.556 230.906 79.808 231.21 80.184C231.514 80.56 231.666 81.052 231.666 81.66C231.666 82.116 231.562 82.528 231.354 82.896C231.146 83.256 230.834 83.54 230.418 83.748C230.002 83.956 229.502 84.06 228.918 84.06C228.07 84.06 227.374 83.84 226.83 83.4C226.286 82.952 225.982 82.32 225.918 81.504H226.974C227.03 81.984 227.226 82.376 227.562 82.68C227.898 82.984 228.346 83.136 228.906 83.136C229.466 83.136 229.89 82.992 230.178 82.704C230.474 82.408 230.622 82.028 230.622 81.564C230.622 80.964 230.422 80.532 230.022 80.268C229.622 80.004 229.018 79.872 228.21 79.872H227.934V78.96H228.222C228.958 78.952 229.514 78.832 229.89 78.6C230.266 78.36 230.454 77.992 230.454 77.496C230.454 77.072 230.314 76.732 230.034 76.476C229.762 76.22 229.37 76.092 228.858 76.092C228.362 76.092 227.962 76.22 227.658 76.476C227.354 76.732 227.174 77.076 227.118 77.508H226.05ZM232.661 77.28C232.661 76.736 232.825 76.304 233.153 75.984C233.481 75.656 233.901 75.492 234.413 75.492C234.925 75.492 235.345 75.656 235.673 75.984C236.001 76.304 236.165 76.736 236.165 77.28C236.165 77.832 236.001 78.272 235.673 78.6C235.345 78.92 234.925 79.08 234.413 79.08C233.901 79.08 233.481 78.92 233.153 78.6C232.825 78.272 232.661 77.832 232.661 77.28ZM239.669 75.624L234.809 84H233.729L238.589 75.624H239.669ZM234.413 76.164C234.141 76.164 233.925 76.26 233.765 76.452C233.613 76.636 233.537 76.912 233.537 77.28C233.537 77.648 233.613 77.928 233.765 78.12C233.925 78.312 234.141 78.408 234.413 78.408C234.685 78.408 234.901 78.312 235.061 78.12C235.221 77.92 235.301 77.64 235.301 77.28C235.301 76.912 235.221 76.636 235.061 76.452C234.901 76.26 234.685 76.164 234.413 76.164ZM237.257 82.344C237.257 81.792 237.421 81.356 237.749 81.036C238.077 80.708 238.497 80.544 239.009 80.544C239.521 80.544 239.937 80.708 240.257 81.036C240.585 81.356 240.749 81.792 240.749 82.344C240.749 82.888 240.585 83.324 240.257 83.652C239.937 83.98 239.521 84.144 239.009 84.144C238.497 84.144 238.077 83.984 237.749 83.664C237.421 83.336 237.257 82.896 237.257 82.344ZM238.997 81.228C238.725 81.228 238.509 81.324 238.349 81.516C238.189 81.7 238.109 81.976 238.109 82.344C238.109 82.704 238.189 82.98 238.349 83.172C238.509 83.356 238.725 83.448 238.997 83.448C239.269 83.448 239.485 83.356 239.645 83.172C239.805 82.98 239.885 82.704 239.885 82.344C239.885 81.976 239.805 81.7 239.645 81.516C239.485 81.324 239.269 81.228 238.997 81.228Z" fill="white"/>
<path d="M207 93.0001C207 98.5232 203.523 102 198 102C192.477 102 189 98.5232 189 93.0001C189 87.0732 195.452 79.0719 197.431 76.7576C197.501 76.6753 197.588 76.6093 197.687 76.5641C197.785 76.5188 197.892 76.4954 198 76.4954C198.109 76.4954 198.216 76.5188 198.314 76.5641C198.412 76.6093 198.5 76.6753 198.57 76.7576C200.548 79.0719 207 87.0732 207 93.0001Z" stroke="white" stroke-width="2" stroke-miterlimit="10"/>
<path d="M203.5 93.5C203.5 94.6935 203.026 95.8381 202.182 96.682C201.338 97.5259 200.193 98 199 98" stroke="white" stroke-width="2" stroke-linecap="round" stroke-linejoin="round"/>
<path d="M34.983 45C35.1857 45.0033 35.3846 44.9449 35.5534 44.8326C35.7222 44.7202 35.8528 44.5593 35.928 44.371L39.769 34.77L49.371 30.929C49.5567 30.8548 49.7159 30.7266 49.8281 30.561C49.9402 30.3954 50.0001 30.2 50 30L50 29.984C49.9968 29.7815 49.9322 29.5847 49.8147 29.4197C49.6972 29.2547 49.5324 29.1292 49.342 29.06L27.342 21.06C27.163 20.9945 26.9691 20.9815 26.783 21.0226C26.5969 21.0636 26.4264 21.157 26.2915 21.2917C26.1567 21.4264 26.0632 21.5968 26.022 21.7829C25.9808 21.969 25.9937 22.163 26.059 22.342L34.059 44.342C34.1284 44.5324 34.254 44.6973 34.4192 44.8148C34.5844 44.9323 34.7813 44.9969 34.984 45L34.983 45Z" fill="white"/>
<path d="M69.436 37.636L67.012 46H65.788L63.844 39.268L61.828 46L60.616 46.012L58.276 37.636H59.44L61.264 44.728L63.28 37.636H64.504L66.424 44.704L68.26 37.636H69.436ZM70.955 38.356C70.747 38.356 70.571 38.284 70.427 38.14C70.283 37.996 70.211 37.82 70.211 37.612C70.211 37.404 70.283 37.228 70.427 37.084C70.571 36.94 70.747 36.868 70.955 36.868C71.155 36.868 71.323 36.94 71.459 37.084C71.603 37.228 71.675 37.404 71.675 37.612C71.675 37.82 71.603 37.996 71.459 38.14C71.323 38.284 71.155 38.356 70.955 38.356ZM71.483 39.424V46H70.391V39.424H71.483ZM76.3082 39.304C77.1082 39.304 77.7562 39.548 78.2522 40.036C78.7482 40.516 78.9962 41.212 78.9962 42.124V46H77.9162V42.28C77.9162 41.624 77.7522 41.124 77.4242 40.78C77.0962 40.428 76.6482 40.252 76.0802 40.252C75.5042 40.252 75.0442 40.432 74.7002 40.792C74.3642 41.152 74.1962 41.676 74.1962 42.364V46H73.1042V39.424H74.1962V40.36C74.4122 40.024 74.7042 39.764 75.0722 39.58C75.4482 39.396 75.8602 39.304 76.3082 39.304ZM80.1319 42.688C80.1319 42.016 80.2679 41.428 80.5399 40.924C80.8119 40.412 81.1839 40.016 81.6559 39.736C82.1359 39.456 82.6719 39.316 83.2639 39.316C83.7759 39.316 84.2519 39.436 84.6919 39.676C85.1319 39.908 85.4679 40.216 85.6999 40.6V37.12H86.8039V46H85.6999V44.764C85.4839 45.156 85.1639 45.48 84.7399 45.736C84.3159 45.984 83.8199 46.108 83.2519 46.108C82.6679 46.108 82.1359 45.964 81.6559 45.676C81.1839 45.388 80.8119 44.984 80.5399 44.464C80.2679 43.944 80.1319 43.352 80.1319 42.688ZM85.6999 42.7C85.6999 42.204 85.5999 41.772 85.3999 41.404C85.1999 41.036 84.9279 40.756 84.5839 40.564C84.2479 40.364 83.8759 40.264 83.4679 40.264C83.0599 40.264 82.6879 40.36 82.3519 40.552C82.0159 40.744 81.7479 41.024 81.5479 41.392C81.3479 41.76 81.2479 42.192 81.2479 42.688C81.2479 43.192 81.3479 43.632 81.5479 44.008C81.7479 44.376 82.0159 44.66 82.3519 44.86C82.6879 45.052 83.0599 45.148 83.4679 45.148C83.8759 45.148 84.2479 45.052 84.5839 44.86C84.9279 44.66 85.1999 44.376 85.3999 44.008C85.5999 43.632 85.6999 43.196 85.6999 42.7Z" fill="white"/>
<path d="M58.72 21.508C58.776 20.772 59.06 20.196 59.572 19.78C60.084 19.364 60.748 19.156 61.564 19.156C62.108 19.156 62.576 19.256 62.968 19.456C63.368 19.648 63.668 19.912 63.868 20.248C64.076 20.584 64.18 20.964 64.18 21.388C64.18 21.884 64.036 22.312 63.748 22.672C63.468 23.032 63.1 23.264 62.644 23.368V23.428C63.164 23.556 63.576 23.808 63.88 24.184C64.184 24.56 64.336 25.052 64.336 25.66C64.336 26.116 64.232 26.528 64.024 26.896C63.816 27.256 63.504 27.54 63.088 27.748C62.672 27.956 62.172 28.06 61.588 28.06C60.74 28.06 60.044 27.84 59.5 27.4C58.956 26.952 58.652 26.32 58.588 25.504H59.644C59.7 25.984 59.896 26.376 60.232 26.68C60.568 26.984 61.016 27.136 61.576 27.136C62.136 27.136 62.56 26.992 62.848 26.704C63.144 26.408 63.292 26.028 63.292 25.564C63.292 24.964 63.092 24.532 62.692 24.268C62.292 24.004 61.688 23.872 60.88 23.872H60.604V22.96H60.892C61.628 22.952 62.184 22.832 62.56 22.6C62.936 22.36 63.124 21.992 63.124 21.496C63.124 21.072 62.984 20.732 62.704 20.476C62.432 20.22 62.04 20.092 61.528 20.092C61.032 20.092 60.632 20.22 60.328 20.476C60.024 20.732 59.844 21.076 59.788 21.508H58.72ZM66.0984 28.072C65.8904 28.072 65.7144 28 65.5704 27.856C65.4264 27.712 65.3544 27.536 65.3544 27.328C65.3544 27.12 65.4264 26.944 65.5704 26.8C65.7144 26.656 65.8904 26.584 66.0984 26.584C66.2984 26.584 66.4664 26.656 66.6024 26.8C66.7464 26.944 66.8184 27.12 66.8184 27.328C66.8184 27.536 66.7464 27.712 66.6024 27.856C66.4664 28 66.2984 28.072 66.0984 28.072ZM73.1899 20.176L69.8539 28H68.7499L72.1339 20.284H67.5019V19.348H73.1899V20.176ZM80.9719 28L78.3919 25.096V28H77.2999V19.12H78.3919V24.34L80.9239 21.424H82.4479L79.3519 24.7L82.4599 28H80.9719ZM91.1437 21.304C91.6557 21.304 92.1117 21.412 92.5117 21.628C92.9117 21.836 93.2277 22.152 93.4597 22.576C93.6917 23 93.8077 23.516 93.8077 24.124V28H92.7277V24.28C92.7277 23.624 92.5637 23.124 92.2357 22.78C91.9157 22.428 91.4797 22.252 90.9277 22.252C90.3597 22.252 89.9077 22.436 89.5717 22.804C89.2357 23.164 89.0677 23.688 89.0677 24.376V28H87.9877V24.28C87.9877 23.624 87.8237 23.124 87.4957 22.78C87.1757 22.428 86.7397 22.252 86.1877 22.252C85.6197 22.252 85.1677 22.436 84.8317 22.804C84.4957 23.164 84.3277 23.688 84.3277 24.376V28H83.2357V21.424H84.3277V22.372C84.5437 22.028 84.8317 21.764 85.1917 21.58C85.5597 21.396 85.9637 21.304 86.4037 21.304C86.9557 21.304 87.4437 21.428 87.8677 21.676C88.2917 21.924 88.6077 22.288 88.8157 22.768C88.9997 22.304 89.3037 21.944 89.7277 21.688C90.1517 21.432 90.6237 21.304 91.1437 21.304ZM99.439 16.696L96.151 30.04H95.071L98.347 16.696H99.439ZM104.09 21.304C104.586 21.304 105.034 21.412 105.434 21.628C105.834 21.836 106.146 22.152 106.37 22.576C106.602 23 106.718 23.516 106.718 24.124V28H105.638V24.28C105.638 23.624 105.474 23.124 105.146 22.78C104.818 22.428 104.37 22.252 103.802 22.252C103.226 22.252 102.766 22.432 102.422 22.792C102.086 23.152 101.918 23.676 101.918 24.364V28H100.826V19.12H101.918V22.36C102.134 22.024 102.43 21.764 102.806 21.58C103.19 21.396 103.618 21.304 104.09 21.304Z" fill="white"/>
<path d="M198 22.3334C202.225 22.3334 204.621 25.1307 204.969 28.5067H205.076C205.722 28.5057 206.362 28.6319 206.959 28.8782C207.556 29.1246 208.099 29.4862 208.556 29.9423C209.013 30.3985 209.376 30.9403 209.624 31.5368C209.872 32.1333 209.999 32.7728 210 33.4187C209.999 34.0645 209.871 34.7038 209.623 35.3002C209.376 35.8965 209.013 36.4382 208.555 36.8942C208.098 37.3503 207.556 37.7117 206.958 37.958C206.361 38.2042 205.722 38.3304 205.076 38.3294H204.3L202.191 41.8414C202.064 42.0606 201.859 42.2236 201.616 42.2974C201.374 42.3712 201.113 42.3503 200.885 42.2389C200.658 42.1275 200.481 41.934 200.391 41.6974C200.3 41.4607 200.303 41.1987 200.399 40.964L200.459 40.8414L201.991 38.3294H199.143L197.033 41.8414C196.907 42.0606 196.701 42.2236 196.459 42.2974C196.217 42.3712 195.955 42.3503 195.728 42.2389C195.5 42.1275 195.324 41.934 195.233 41.6974C195.143 41.4607 195.146 41.1987 195.241 40.964L195.301 40.8414L196.833 38.3294H193.984L191.875 41.84C191.747 42.057 191.542 42.2177 191.3 42.29C191.059 42.3623 190.799 42.3409 190.573 42.2301C190.347 42.1193 190.171 41.9272 190.08 41.6923C189.99 41.4573 189.991 41.1968 190.084 40.9627L190.143 40.84L191.675 38.328H190.924C190.278 38.3291 189.639 38.2029 189.042 37.9566C188.444 37.7104 187.902 37.3489 187.445 36.8929C186.987 36.4369 186.624 35.8952 186.377 35.2989C186.129 34.7025 186.001 34.0632 186 33.4174C186.001 32.7718 186.129 32.1327 186.377 31.5366C186.625 30.9405 186.987 30.3991 187.445 29.9432C187.902 29.4873 188.444 29.1259 189.041 28.8797C189.638 28.6335 190.277 28.5072 190.923 28.508H191.029C191.381 25.1067 193.776 22.3334 198 22.3334ZM198 24.3307C195.239 24.3307 192.831 26.5094 192.831 29.5174C192.831 29.9934 192.405 30.3667 191.919 30.3667H190.999C189.317 30.3667 187.953 31.7027 187.953 33.3494C187.953 34.996 189.317 36.3307 190.999 36.3307H205.003C206.683 36.3307 208.047 34.996 208.047 33.3494C208.047 31.7027 206.683 30.3667 205.001 30.3667H204.081C203.595 30.3667 203.169 29.9934 203.169 29.5174C203.169 26.4707 200.761 24.3307 198 24.3307Z" fill="white"/>
<path d="M218.516 41.812C218.516 40.996 218.7 40.264 219.068 39.616C219.436 38.96 219.936 38.448 220.568 38.08C221.208 37.712 221.916 37.528 222.692 37.528C223.604 37.528 224.4 37.748 225.08 38.188C225.76 38.628 226.256 39.252 226.568 40.06H225.26C225.028 39.556 224.692 39.168 224.252 38.896C223.82 38.624 223.3 38.488 222.692 38.488C222.108 38.488 221.584 38.624 221.12 38.896C220.656 39.168 220.292 39.556 220.028 40.06C219.764 40.556 219.632 41.14 219.632 41.812C219.632 42.476 219.764 43.06 220.028 43.564C220.292 44.06 220.656 44.444 221.12 44.716C221.584 44.988 222.108 45.124 222.692 45.124C223.3 45.124 223.82 44.992 224.252 44.728C224.692 44.456 225.028 44.068 225.26 43.564H226.568C226.256 44.364 225.76 44.984 225.08 45.424C224.4 45.856 223.604 46.072 222.692 46.072C221.916 46.072 221.208 45.892 220.568 45.532C219.936 45.164 219.436 44.656 219.068 44.008C218.7 43.36 218.516 42.628 218.516 41.812ZM231.218 39.304C231.714 39.304 232.162 39.412 232.562 39.628C232.962 39.836 233.274 40.152 233.498 40.576C233.73 41 233.846 41.516 233.846 42.124V46H232.766V42.28C232.766 41.624 232.602 41.124 232.274 40.78C231.946 40.428 231.498 40.252 230.93 40.252C230.354 40.252 229.894 40.432 229.55 40.792C229.214 41.152 229.046 41.676 229.046 42.364V46H227.954V37.12H229.046V40.36C229.262 40.024 229.558 39.764 229.934 39.58C230.318 39.396 230.746 39.304 231.218 39.304ZM234.981 42.688C234.981 42.016 235.117 41.428 235.389 40.924C235.661 40.412 236.033 40.016 236.505 39.736C236.985 39.456 237.517 39.316 238.101 39.316C238.677 39.316 239.177 39.44 239.601 39.688C240.025 39.936 240.341 40.248 240.549 40.624V39.424H241.653V46H240.549V44.776C240.333 45.16 240.009 45.48 239.577 45.736C239.153 45.984 238.657 46.108 238.089 46.108C237.505 46.108 236.977 45.964 236.505 45.676C236.033 45.388 235.661 44.984 235.389 44.464C235.117 43.944 234.981 43.352 234.981 42.688ZM240.549 42.7C240.549 42.204 240.449 41.772 240.249 41.404C240.049 41.036 239.777 40.756 239.433 40.564C239.097 40.364 238.725 40.264 238.317 40.264C237.909 40.264 237.537 40.36 237.201 40.552C236.865 40.744 236.597 41.024 236.397 41.392C236.197 41.76 236.097 42.192 236.097 42.688C236.097 43.192 236.197 43.632 236.397 44.008C236.597 44.376 236.865 44.66 237.201 44.86C237.537 45.052 237.909 45.148 238.317 45.148C238.725 45.148 239.097 45.052 239.433 44.86C239.777 44.66 240.049 44.376 240.249 44.008C240.449 43.632 240.549 43.196 240.549 42.7ZM246.463 39.304C247.263 39.304 247.911 39.548 248.407 40.036C248.903 40.516 249.151 41.212 249.151 42.124V46H248.071V42.28C248.071 41.624 247.907 41.124 247.579 40.78C247.251 40.428 246.803 40.252 246.235 40.252C245.659 40.252 245.199 40.432 244.855 40.792C244.519 41.152 244.351 41.676 244.351 42.364V46H243.259V39.424H244.351V40.36C244.567 40.024 244.859 39.764 245.227 39.58C245.603 39.396 246.015 39.304 246.463 39.304ZM250.286 42.7C250.286 42.02 250.422 41.428 250.694 40.924C250.966 40.412 251.342 40.016 251.822 39.736C252.31 39.456 252.866 39.316 253.49 39.316C254.298 39.316 254.962 39.512 255.482 39.904C256.01 40.296 256.358 40.84 256.526 41.536H255.35C255.238 41.136 255.018 40.82 254.69 40.588C254.37 40.356 253.97 40.24 253.49 40.24C252.866 40.24 252.362 40.456 251.978 40.888C251.594 41.312 251.402 41.916 251.402 42.7C251.402 43.492 251.594 44.104 251.978 44.536C252.362 44.968 252.866 45.184 253.49 45.184C253.97 45.184 254.37 45.072 254.69 44.848C255.01 44.624 255.23 44.304 255.35 43.888H256.526C256.35 44.56 255.998 45.1 255.47 45.508C254.942 45.908 254.282 46.108 253.49 46.108C252.866 46.108 252.31 45.968 251.822 45.688C251.342 45.408 250.966 45.012 250.694 44.5C250.422 43.988 250.286 43.388 250.286 42.7ZM263.744 42.46C263.744 42.668 263.732 42.888 263.708 43.12H258.452C258.492 43.768 258.712 44.276 259.112 44.644C259.52 45.004 260.012 45.184 260.588 45.184C261.06 45.184 261.452 45.076 261.764 44.86C262.084 44.636 262.308 44.34 262.436 43.972H263.612C263.436 44.604 263.084 45.12 262.556 45.52C262.028 45.912 261.372 46.108 260.588 46.108C259.964 46.108 259.404 45.968 258.908 45.688C258.42 45.408 258.036 45.012 257.756 44.5C257.476 43.98 257.336 43.38 257.336 42.7C257.336 42.02 257.472 41.424 257.744 40.912C258.016 40.4 258.396 40.008 258.884 39.736C259.38 39.456 259.948 39.316 260.588 39.316C261.212 39.316 261.764 39.452 262.244 39.724C262.724 39.996 263.092 40.372 263.348 40.852C263.612 41.324 263.744 41.86 263.744 42.46ZM262.616 42.232C262.616 41.816 262.524 41.46 262.34 41.164C262.156 40.86 261.904 40.632 261.584 40.48C261.272 40.32 260.924 40.24 260.54 40.24C259.988 40.24 259.516 40.416 259.124 40.768C258.74 41.12 258.52 41.608 258.464 42.232H262.616ZM270.772 46.108C270.156 46.108 269.596 45.968 269.092 45.688C268.596 45.408 268.204 45.012 267.916 44.5C267.636 43.98 267.496 43.38 267.496 42.7C267.496 42.028 267.64 41.436 267.928 40.924C268.224 40.404 268.624 40.008 269.128 39.736C269.632 39.456 270.196 39.316 270.82 39.316C271.444 39.316 272.008 39.456 272.512 39.736C273.016 40.008 273.412 40.4 273.7 40.912C273.996 41.424 274.144 42.02 274.144 42.7C274.144 43.38 273.992 43.98 273.688 44.5C273.392 45.012 272.988 45.408 272.476 45.688C271.964 45.968 271.396 46.108 270.772 46.108ZM270.772 45.148C271.164 45.148 271.532 45.056 271.876 44.872C272.22 44.688 272.496 44.412 272.704 44.044C272.92 43.676 273.028 43.228 273.028 42.7C273.028 42.172 272.924 41.724 272.716 41.356C272.508 40.988 272.236 40.716 271.9 40.54C271.564 40.356 271.2 40.264 270.808 40.264C270.408 40.264 270.04 40.356 269.704 40.54C269.376 40.716 269.112 40.988 268.912 41.356C268.712 41.724 268.612 42.172 268.612 42.7C268.612 43.236 268.708 43.688 268.9 44.056C269.1 44.424 269.364 44.7 269.692 44.884C270.02 45.06 270.38 45.148 270.772 45.148ZM278.016 40.324H276.636V46H275.544V40.324H274.692V39.424H275.544V38.956C275.544 38.22 275.732 37.684 276.108 37.348C276.492 37.004 277.104 36.832 277.944 36.832V37.744C277.464 37.744 277.124 37.84 276.924 38.032C276.732 38.216 276.636 38.524 276.636 38.956V39.424H278.016V40.324ZM283.1 40.492C283.292 40.116 283.564 39.824 283.916 39.616C284.276 39.408 284.712 39.304 285.224 39.304V40.432H284.936C283.712 40.432 283.1 41.096 283.1 42.424V46H282.008V39.424H283.1V40.492ZM285.837 42.688C285.837 42.016 285.973 41.428 286.245 40.924C286.517 40.412 286.889 40.016 287.361 39.736C287.841 39.456 288.373 39.316 288.957 39.316C289.533 39.316 290.033 39.44 290.457 39.688C290.881 39.936 291.197 40.248 291.405 40.624V39.424H292.509V46H291.405V44.776C291.189 45.16 290.865 45.48 290.433 45.736C290.009 45.984 289.513 46.108 288.945 46.108C288.361 46.108 287.833 45.964 287.361 45.676C286.889 45.388 286.517 44.984 286.245 44.464C285.973 43.944 285.837 43.352 285.837 42.688ZM291.405 42.7C291.405 42.204 291.305 41.772 291.105 41.404C290.905 41.036 290.633 40.756 290.289 40.564C289.953 40.364 289.581 40.264 289.173 40.264C288.765 40.264 288.393 40.36 288.057 40.552C287.721 40.744 287.453 41.024 287.253 41.392C287.053 41.76 286.953 42.192 286.953 42.688C286.953 43.192 287.053 43.632 287.253 44.008C287.453 44.376 287.721 44.66 288.057 44.86C288.393 45.052 288.765 45.148 289.173 45.148C289.581 45.148 289.953 45.052 290.289 44.86C290.633 44.66 290.905 44.376 291.105 44.008C291.305 43.632 291.405 43.196 291.405 42.7ZM294.678 38.356C294.47 38.356 294.294 38.284 294.15 38.14C294.006 37.996 293.934 37.82 293.934 37.612C293.934 37.404 294.006 37.228 294.15 37.084C294.294 36.94 294.47 36.868 294.678 36.868C294.878 36.868 295.046 36.94 295.182 37.084C295.326 37.228 295.398 37.404 295.398 37.612C295.398 37.82 295.326 37.996 295.182 38.14C295.046 38.284 294.878 38.356 294.678 38.356ZM295.206 39.424V46H294.114V39.424H295.206ZM300.031 39.304C300.831 39.304 301.479 39.548 301.975 40.036C302.471 40.516 302.719 41.212 302.719 42.124V46H301.639V42.28C301.639 41.624 301.475 41.124 301.147 40.78C300.819 40.428 300.371 40.252 299.803 40.252C299.227 40.252 298.767 40.432 298.423 40.792C298.087 41.152 297.919 41.676 297.919 42.364V46H296.827V39.424H297.919V40.36C298.135 40.024 298.427 39.764 298.795 39.58C299.171 39.396 299.583 39.304 300.031 39.304Z" fill="white"/>
<path d="M224.084 20.176L220.748 28H219.644L223.028 20.284H218.396V19.348H224.084V20.176ZM224.791 26.068V25.24L229.003 19.408H230.311V25.12H231.511V26.068H230.311V28H229.231V26.068H224.791ZM229.279 20.548L226.051 25.12H229.279V20.548ZM232.122 21.28C232.122 20.736 232.286 20.304 232.614 19.984C232.942 19.656 233.362 19.492 233.874 19.492C234.386 19.492 234.806 19.656 235.134 19.984C235.462 20.304 235.626 20.736 235.626 21.28C235.626 21.832 235.462 22.272 235.134 22.6C234.806 22.92 234.386 23.08 233.874 23.08C233.362 23.08 232.942 22.92 232.614 22.6C232.286 22.272 232.122 21.832 232.122 21.28ZM239.13 19.624L234.27 28H233.19L238.05 19.624H239.13ZM233.874 20.164C233.602 20.164 233.386 20.26 233.226 20.452C233.074 20.636 232.998 20.912 232.998 21.28C232.998 21.648 233.074 21.928 233.226 22.12C233.386 22.312 233.602 22.408 233.874 22.408C234.146 22.408 234.362 22.312 234.522 22.12C234.682 21.92 234.762 21.64 234.762 21.28C234.762 20.912 234.682 20.636 234.522 20.452C234.362 20.26 234.146 20.164 233.874 20.164ZM236.718 26.344C236.718 25.792 236.882 25.356 237.21 25.036C237.538 24.708 237.958 24.544 238.47 24.544C238.982 24.544 239.398 24.708 239.718 25.036C240.046 25.356 240.21 25.792 240.21 26.344C240.21 26.888 240.046 27.324 239.718 27.652C239.398 27.98 238.982 28.144 238.47 28.144C237.958 28.144 237.538 27.984 237.21 27.664C236.882 27.336 236.718 26.896 236.718 26.344ZM238.458 25.228C238.186 25.228 237.97 25.324 237.81 25.516C237.65 25.7 237.57 25.976 237.57 26.344C237.57 26.704 237.65 26.98 237.81 27.172C237.97 27.356 238.186 27.448 238.458 27.448C238.73 27.448 238.946 27.356 239.106 27.172C239.266 26.98 239.346 26.704 239.346 26.344C239.346 25.976 239.266 25.7 239.106 25.516C238.946 25.324 238.73 25.228 238.458 25.228Z" fill="white"/>
<rect width="326" height="1" fill="white"/>
</svg>
