<svg width="94" height="32" viewBox="0 0 94 32" fill="none" xmlns="http://www.w3.org/2000/svg">
<path d="M42.516 23.084C42.516 23.78 42.276 24.36 41.796 24.824C41.324 25.28 40.6 25.508 39.624 25.508H38.016V29H36.924V20.636H39.624C40.568 20.636 41.284 20.864 41.772 21.32C42.268 21.776 42.516 22.364 42.516 23.084ZM39.624 24.608C40.232 24.608 40.68 24.476 40.968 24.212C41.256 23.948 41.4 23.572 41.4 23.084C41.4 22.052 40.808 21.536 39.624 21.536H38.016V24.608H39.624ZM44.7252 23.492C44.9172 23.116 45.1892 22.824 45.5412 22.616C45.9012 22.408 46.3372 22.304 46.8492 22.304V23.432H46.5612C45.3372 23.432 44.7252 24.096 44.7252 25.424V29H43.6332V22.424H44.7252V23.492ZM53.8698 25.46C53.8698 25.668 53.8578 25.888 53.8338 26.12H48.5778C48.6178 26.768 48.8378 27.276 49.2378 27.644C49.6458 28.004 50.1378 28.184 50.7138 28.184C51.1858 28.184 51.5778 28.076 51.8898 27.86C52.2098 27.636 52.4338 27.34 52.5618 26.972H53.7378C53.5618 27.604 53.2098 28.12 52.6818 28.52C52.1538 28.912 51.4978 29.108 50.7138 29.108C50.0898 29.108 49.5298 28.968 49.0338 28.688C48.5458 28.408 48.1618 28.012 47.8818 27.5C47.6018 26.98 47.4618 26.38 47.4618 25.7C47.4618 25.02 47.5978 24.424 47.8698 23.912C48.1418 23.4 48.5218 23.008 49.0098 22.736C49.5058 22.456 50.0738 22.316 50.7138 22.316C51.3378 22.316 51.8898 22.452 52.3698 22.724C52.8498 22.996 53.2178 23.372 53.4738 23.852C53.7378 24.324 53.8698 24.86 53.8698 25.46ZM52.7418 25.232C52.7418 24.816 52.6498 24.46 52.4658 24.164C52.2818 23.86 52.0298 23.632 51.7098 23.48C51.3978 23.32 51.0498 23.24 50.6658 23.24C50.1138 23.24 49.6418 23.416 49.2498 23.768C48.8658 24.12 48.6458 24.608 48.5898 25.232H52.7418ZM57.3992 29.108C56.8952 29.108 56.4432 29.024 56.0432 28.856C55.6432 28.68 55.3272 28.44 55.0952 28.136C54.8632 27.824 54.7352 27.468 54.7112 27.068H55.8392C55.8712 27.396 56.0232 27.664 56.2952 27.872C56.5752 28.08 56.9392 28.184 57.3872 28.184C57.8032 28.184 58.1312 28.092 58.3712 27.908C58.6112 27.724 58.7312 27.492 58.7312 27.212C58.7312 26.924 58.6032 26.712 58.3472 26.576C58.0912 26.432 57.6952 26.292 57.1592 26.156C56.6712 26.028 56.2712 25.9 55.9592 25.772C55.6552 25.636 55.3912 25.44 55.1672 25.184C54.9512 24.92 54.8432 24.576 54.8432 24.152C54.8432 23.816 54.9432 23.508 55.1432 23.228C55.3432 22.948 55.6272 22.728 55.9952 22.568C56.3632 22.4 56.7832 22.316 57.2552 22.316C57.9832 22.316 58.5712 22.5 59.0192 22.868C59.4672 23.236 59.7072 23.74 59.7392 24.38H58.6472C58.6232 24.036 58.4832 23.76 58.2272 23.552C57.9792 23.344 57.6432 23.24 57.2192 23.24C56.8272 23.24 56.5152 23.324 56.2832 23.492C56.0512 23.66 55.9352 23.88 55.9352 24.152C55.9352 24.368 56.0032 24.548 56.1392 24.692C56.2832 24.828 56.4592 24.94 56.6672 25.028C56.8832 25.108 57.1792 25.2 57.5552 25.304C58.0272 25.432 58.4112 25.56 58.7072 25.688C59.0032 25.808 59.2552 25.992 59.4632 26.24C59.6792 26.488 59.7912 26.812 59.7992 27.212C59.7992 27.572 59.6992 27.896 59.4992 28.184C59.2992 28.472 59.0152 28.7 58.6472 28.868C58.2872 29.028 57.8712 29.108 57.3992 29.108ZM63.4287 29.108C62.9247 29.108 62.4727 29.024 62.0727 28.856C61.6727 28.68 61.3567 28.44 61.1247 28.136C60.8927 27.824 60.7647 27.468 60.7407 27.068H61.8687C61.9007 27.396 62.0527 27.664 62.3247 27.872C62.6047 28.08 62.9687 28.184 63.4167 28.184C63.8327 28.184 64.1607 28.092 64.4007 27.908C64.6407 27.724 64.7607 27.492 64.7607 27.212C64.7607 26.924 64.6327 26.712 64.3767 26.576C64.1207 26.432 63.7247 26.292 63.1887 26.156C62.7007 26.028 62.3007 25.9 61.9887 25.772C61.6847 25.636 61.4207 25.44 61.1967 25.184C60.9807 24.92 60.8727 24.576 60.8727 24.152C60.8727 23.816 60.9727 23.508 61.1727 23.228C61.3727 22.948 61.6567 22.728 62.0247 22.568C62.3927 22.4 62.8127 22.316 63.2847 22.316C64.0127 22.316 64.6007 22.5 65.0487 22.868C65.4967 23.236 65.7367 23.74 65.7687 24.38H64.6767C64.6527 24.036 64.5127 23.76 64.2567 23.552C64.0087 23.344 63.6727 23.24 63.2487 23.24C62.8567 23.24 62.5447 23.324 62.3127 23.492C62.0807 23.66 61.9647 23.88 61.9647 24.152C61.9647 24.368 62.0327 24.548 62.1687 24.692C62.3127 24.828 62.4887 24.94 62.6967 25.028C62.9127 25.108 63.2087 25.2 63.5847 25.304C64.0567 25.432 64.4407 25.56 64.7367 25.688C65.0327 25.808 65.2847 25.992 65.4927 26.24C65.7087 26.488 65.8207 26.812 65.8287 27.212C65.8287 27.572 65.7287 27.896 65.5287 28.184C65.3287 28.472 65.0447 28.7 64.6767 28.868C64.3167 29.028 63.9007 29.108 63.4287 29.108ZM72.9622 22.424V29H71.8702V28.028C71.6622 28.364 71.3702 28.628 70.9942 28.82C70.6262 29.004 70.2182 29.096 69.7702 29.096C69.2582 29.096 68.7982 28.992 68.3902 28.784C67.9822 28.568 67.6582 28.248 67.4182 27.824C67.1862 27.4 67.0702 26.884 67.0702 26.276V22.424H68.1502V26.132C68.1502 26.78 68.3142 27.28 68.6422 27.632C68.9702 27.976 69.4182 28.148 69.9862 28.148C70.5702 28.148 71.0302 27.968 71.3662 27.608C71.7022 27.248 71.8702 26.724 71.8702 26.036V22.424H72.9622ZM75.658 23.492C75.85 23.116 76.122 22.824 76.474 22.616C76.834 22.408 77.27 22.304 77.782 22.304V23.432H77.494C76.27 23.432 75.658 24.096 75.658 25.424V29H74.566V22.424H75.658V23.492ZM84.8026 25.46C84.8026 25.668 84.7906 25.888 84.7666 26.12H79.5106C79.5506 26.768 79.7706 27.276 80.1706 27.644C80.5786 28.004 81.0706 28.184 81.6466 28.184C82.1186 28.184 82.5106 28.076 82.8226 27.86C83.1426 27.636 83.3666 27.34 83.4946 26.972H84.6706C84.4946 27.604 84.1426 28.12 83.6146 28.52C83.0866 28.912 82.4306 29.108 81.6466 29.108C81.0226 29.108 80.4626 28.968 79.9666 28.688C79.4786 28.408 79.0946 28.012 78.8146 27.5C78.5346 26.98 78.3946 26.38 78.3946 25.7C78.3946 25.02 78.5306 24.424 78.8026 23.912C79.0746 23.4 79.4546 23.008 79.9426 22.736C80.4386 22.456 81.0066 22.316 81.6466 22.316C82.2706 22.316 82.8226 22.452 83.3026 22.724C83.7826 22.996 84.1506 23.372 84.4066 23.852C84.6706 24.324 84.8026 24.86 84.8026 25.46ZM83.6746 25.232C83.6746 24.816 83.5826 24.46 83.3986 24.164C83.2146 23.86 82.9626 23.632 82.6426 23.48C82.3306 23.32 81.9826 23.24 81.5986 23.24C81.0466 23.24 80.5746 23.416 80.1826 23.768C79.7986 24.12 79.5786 24.608 79.5226 25.232H83.6746Z" fill="white"/>
<path d="M36.456 3.32V2.324H38.712V11H37.608V3.32H36.456ZM40.3478 6.572C40.3478 5.196 40.5718 4.124 41.0198 3.356C41.4678 2.58 42.2518 2.192 43.3718 2.192C44.4838 2.192 45.2638 2.58 45.7118 3.356C46.1597 4.124 46.3837 5.196 46.3837 6.572C46.3837 7.972 46.1597 9.06 45.7118 9.836C45.2638 10.612 44.4838 11 43.3718 11C42.2518 11 41.4678 10.612 41.0198 9.836C40.5718 9.06 40.3478 7.972 40.3478 6.572ZM45.3038 6.572C45.3038 5.876 45.2558 5.288 45.1598 4.808C45.0718 4.32 44.8838 3.928 44.5958 3.632C44.3158 3.336 43.9078 3.188 43.3718 3.188C42.8278 3.188 42.4118 3.336 42.1238 3.632C41.8438 3.928 41.6558 4.32 41.5598 4.808C41.4718 5.288 41.4278 5.876 41.4278 6.572C41.4278 7.292 41.4718 7.896 41.5598 8.384C41.6558 8.872 41.8438 9.264 42.1238 9.56C42.4118 9.856 42.8278 10.004 43.3718 10.004C43.9078 10.004 44.3158 9.856 44.5958 9.56C44.8838 9.264 45.0718 8.872 45.1598 8.384C45.2558 7.896 45.3038 7.292 45.3038 6.572ZM47.3549 3.32V2.324H49.6109V11H48.5069V3.32H47.3549ZM51.2467 6.572C51.2467 5.196 51.4707 4.124 51.9187 3.356C52.3667 2.58 53.1507 2.192 54.2707 2.192C55.3827 2.192 56.1627 2.58 56.6107 3.356C57.0587 4.124 57.2827 5.196 57.2827 6.572C57.2827 7.972 57.0587 9.06 56.6107 9.836C56.1627 10.612 55.3827 11 54.2707 11C53.1507 11 52.3667 10.612 51.9187 9.836C51.4707 9.06 51.2467 7.972 51.2467 6.572ZM56.2027 6.572C56.2027 5.876 56.1547 5.288 56.0587 4.808C55.9707 4.32 55.7827 3.928 55.4947 3.632C55.2147 3.336 54.8067 3.188 54.2707 3.188C53.7267 3.188 53.3107 3.336 53.0227 3.632C52.7427 3.928 52.5547 4.32 52.4587 4.808C52.3707 5.288 52.3267 5.876 52.3267 6.572C52.3267 7.292 52.3707 7.896 52.4587 8.384C52.5547 8.872 52.7427 9.264 53.0227 9.56C53.3107 9.856 53.7267 10.004 54.2707 10.004C54.8067 10.004 55.2147 9.856 55.4947 9.56C55.7827 9.264 55.9707 8.872 56.0587 8.384C56.1547 7.896 56.2027 7.292 56.2027 6.572ZM69.589 4.304C70.101 4.304 70.557 4.412 70.957 4.628C71.357 4.836 71.673 5.152 71.905 5.576C72.137 6 72.253 6.516 72.253 7.124V11H71.173V7.28C71.173 6.624 71.009 6.124 70.681 5.78C70.361 5.428 69.925 5.252 69.373 5.252C68.805 5.252 68.353 5.436 68.017 5.804C67.681 6.164 67.513 6.688 67.513 7.376V11H66.433V7.28C66.433 6.624 66.269 6.124 65.941 5.78C65.621 5.428 65.185 5.252 64.633 5.252C64.065 5.252 63.613 5.436 63.277 5.804C62.941 6.164 62.773 6.688 62.773 7.376V11H61.681V4.424H62.773V5.372C62.989 5.028 63.277 4.764 63.637 4.58C64.005 4.396 64.409 4.304 64.849 4.304C65.401 4.304 65.889 4.428 66.313 4.676C66.737 4.924 67.053 5.288 67.261 5.768C67.445 5.304 67.749 4.944 68.173 4.688C68.597 4.432 69.069 4.304 69.589 4.304ZM74.8963 5.648C75.1203 5.256 75.4483 4.936 75.8803 4.688C76.3123 4.44 76.8043 4.316 77.3563 4.316C77.9483 4.316 78.4803 4.456 78.9523 4.736C79.4243 5.016 79.7963 5.412 80.0683 5.924C80.3403 6.428 80.4763 7.016 80.4763 7.688C80.4763 8.352 80.3403 8.944 80.0683 9.464C79.7963 9.984 79.4203 10.388 78.9403 10.676C78.4683 10.964 77.9403 11.108 77.3563 11.108C76.7883 11.108 76.2883 10.984 75.8563 10.736C75.4323 10.488 75.1123 10.172 74.8963 9.788V11H73.8043V2.12H74.8963V5.648ZM79.3603 7.688C79.3603 7.192 79.2603 6.76 79.0603 6.392C78.8603 6.024 78.5883 5.744 78.2443 5.552C77.9083 5.36 77.5363 5.264 77.1283 5.264C76.7283 5.264 76.3563 5.364 76.0123 5.564C75.6763 5.756 75.4043 6.04 75.1963 6.416C74.9963 6.784 74.8963 7.212 74.8963 7.7C74.8963 8.196 74.9963 8.632 75.1963 9.008C75.4043 9.376 75.6763 9.66 76.0123 9.86C76.3563 10.052 76.7283 10.148 77.1283 10.148C77.5363 10.148 77.9083 10.052 78.2443 9.86C78.5883 9.66 78.8603 9.376 79.0603 9.008C79.2603 8.632 79.3603 8.192 79.3603 7.688ZM81.2657 7.688C81.2657 7.016 81.4017 6.428 81.6737 5.924C81.9457 5.412 82.3177 5.016 82.7897 4.736C83.2697 4.456 83.8017 4.316 84.3857 4.316C84.9617 4.316 85.4617 4.44 85.8857 4.688C86.3097 4.936 86.6257 5.248 86.8337 5.624V4.424H87.9377V11H86.8337V9.776C86.6177 10.16 86.2937 10.48 85.8617 10.736C85.4377 10.984 84.9417 11.108 84.3737 11.108C83.7897 11.108 83.2617 10.964 82.7897 10.676C82.3177 10.388 81.9457 9.984 81.6737 9.464C81.4017 8.944 81.2657 8.352 81.2657 7.688ZM86.8337 7.7C86.8337 7.204 86.7337 6.772 86.5337 6.404C86.3337 6.036 86.0617 5.756 85.7177 5.564C85.3817 5.364 85.0097 5.264 84.6017 5.264C84.1937 5.264 83.8217 5.36 83.4857 5.552C83.1497 5.744 82.8817 6.024 82.6817 6.392C82.4817 6.76 82.3817 7.192 82.3817 7.688C82.3817 8.192 82.4817 8.632 82.6817 9.008C82.8817 9.376 83.1497 9.66 83.4857 9.86C83.8217 10.052 84.1937 10.148 84.6017 10.148C85.0097 10.148 85.3817 10.052 85.7177 9.86C86.0617 9.66 86.3337 9.376 86.5337 9.008C86.7337 8.632 86.8337 8.196 86.8337 7.7ZM90.6351 5.492C90.8271 5.116 91.0991 4.824 91.4511 4.616C91.8111 4.408 92.2471 4.304 92.7591 4.304V5.432H92.4711C91.2471 5.432 90.6351 6.096 90.6351 7.424V11H89.5431V4.424H90.6351V5.492Z" fill="white"/>
<path d="M16 2.66663C17.1066 2.66653 18.1714 3.08983 18.9759 3.8497C19.7804 4.60958 20.2637 5.64845 20.3267 6.75329L20.3333 6.99996L20.3347 17.6026L20.4413 17.6946C21.6839 18.8024 22.466 20.3357 22.6333 21.992L22.6587 22.328L22.6667 22.6666C22.6669 23.765 22.3956 24.8465 21.8771 25.8148C21.3586 26.7832 20.6089 27.6084 19.6946 28.2171C18.7802 28.8258 17.7297 29.1992 16.6363 29.304C15.5429 29.4089 14.4405 29.2419 13.4272 28.818C12.4139 28.3941 11.521 27.7264 10.8279 26.8742C10.1348 26.022 9.66309 25.0118 9.45457 23.9334C9.24605 22.8549 9.30723 21.7417 9.63267 20.6926C9.95811 19.6435 10.5377 18.691 11.32 17.92L11.56 17.6933L11.6653 17.6026L11.6667 6.99996C11.6664 5.93503 12.0584 4.90731 12.7676 4.11295C13.4769 3.31859 14.4539 2.81322 15.512 2.69329L15.7547 2.67329L16 2.66663ZM16 4.66663C15.4142 4.66668 14.8499 4.88707 14.4191 5.28402C13.9883 5.68098 13.7225 6.22545 13.6747 6.80929L13.6667 6.99996V18.592L13.2547 18.892C12.4675 19.4645 11.8791 20.2689 11.5718 21.1925C11.2645 22.1161 11.2537 23.1127 11.5408 24.0427C11.828 24.9727 12.3988 25.7897 13.1734 26.3792C13.9479 26.9688 14.8874 27.3014 15.8604 27.3304C16.8333 27.3595 17.791 27.0836 18.5994 26.5414C19.4077 25.9992 20.0263 25.2178 20.3685 24.3065C20.7107 23.3953 20.7594 22.3999 20.5078 21.4596C20.2562 20.5193 19.7169 19.6812 18.9653 19.0626L18.7453 18.8933L18.336 18.5933L18.3333 6.99996C18.3333 6.38112 18.0875 5.78763 17.6499 5.35004C17.2123 4.91246 16.6188 4.66663 16 4.66663ZM16 10.6666C16.2652 10.6666 16.5196 10.772 16.7071 10.9595C16.8946 11.1471 17 11.4014 17 11.6666V19.4866C17.7601 19.7256 18.4095 20.2287 18.8307 20.9051C19.2518 21.5814 19.4169 22.3862 19.2961 23.1737C19.1752 23.9612 18.7764 24.6794 18.1718 25.1983C17.5672 25.7172 16.7967 26.0025 16 26.0025C15.2033 26.0025 14.4328 25.7172 13.8282 25.1983C13.2236 24.6794 12.8248 23.9612 12.7039 23.1737C12.5831 22.3862 12.7482 21.5814 13.1693 20.9051C13.5905 20.2287 14.2399 19.7256 15 19.4866V11.6666C15 11.4014 15.1054 11.1471 15.2929 10.9595C15.4804 10.772 15.7348 10.6666 16 10.6666Z" fill="white"/>
</svg>
